<mxfile host="app.diagrams.net" agent="Mozilla/5.0 (Windows NT 10.0; Win64; x64) AppleWebKit/537.36 (KHTML, like Gecko) Chrome/129.0.0.0 Safari/537.36" version="24.7.17">
  <diagram name="PÃ¡gina-1" id="L0bs4XpJyo26o4yvXp76">
    <mxGraphModel dx="1877" dy="596" grid="1" gridSize="10" guides="1" tooltips="1" connect="1" arrows="1" fold="1" page="1" pageScale="1" pageWidth="827" pageHeight="1169" math="0" shadow="0">
      <root>
        <mxCell id="0" />
        <mxCell id="1" parent="0" />
        <mxCell id="VelDpgCsUzJ9nc0T4Y8R-4" style="edgeStyle=orthogonalEdgeStyle;rounded=0;orthogonalLoop=1;jettySize=auto;html=1;entryX=0.5;entryY=0;entryDx=0;entryDy=0;" edge="1" parent="1" source="VelDpgCsUzJ9nc0T4Y8R-1" target="VelDpgCsUzJ9nc0T4Y8R-2">
          <mxGeometry relative="1" as="geometry" />
        </mxCell>
        <mxCell id="VelDpgCsUzJ9nc0T4Y8R-1" value="CLIENTE WEB" style="rounded=0;whiteSpace=wrap;html=1;" vertex="1" parent="1">
          <mxGeometry x="340" y="20" width="120" height="60" as="geometry" />
        </mxCell>
        <mxCell id="VelDpgCsUzJ9nc0T4Y8R-21" style="edgeStyle=orthogonalEdgeStyle;rounded=0;orthogonalLoop=1;jettySize=auto;html=1;entryX=0;entryY=0.5;entryDx=0;entryDy=0;startArrow=classic;startFill=1;" edge="1" parent="1" source="VelDpgCsUzJ9nc0T4Y8R-2" target="VelDpgCsUzJ9nc0T4Y8R-19">
          <mxGeometry relative="1" as="geometry" />
        </mxCell>
        <mxCell id="VelDpgCsUzJ9nc0T4Y8R-2" value="API GATEWAY" style="rounded=0;whiteSpace=wrap;html=1;" vertex="1" parent="1">
          <mxGeometry x="340" y="130" width="120" height="60" as="geometry" />
        </mxCell>
        <mxCell id="VelDpgCsUzJ9nc0T4Y8R-5" value="MS-CLIENTS-MANAGEMENT" style="rounded=0;whiteSpace=wrap;html=1;" vertex="1" parent="1">
          <mxGeometry x="80" y="295" width="210" height="60" as="geometry" />
        </mxCell>
        <mxCell id="VelDpgCsUzJ9nc0T4Y8R-6" value="MS-TRANSACTIONS" style="rounded=0;whiteSpace=wrap;html=1;" vertex="1" parent="1">
          <mxGeometry x="500" y="295" width="210" height="60" as="geometry" />
        </mxCell>
        <mxCell id="VelDpgCsUzJ9nc0T4Y8R-9" value="" style="shape=cylinder3;whiteSpace=wrap;html=1;boundedLbl=1;backgroundOutline=1;size=15;rotation=-90;" vertex="1" parent="1">
          <mxGeometry x="370" y="325" width="60" height="260" as="geometry" />
        </mxCell>
        <mxCell id="VelDpgCsUzJ9nc0T4Y8R-10" value="EVENT BUS" style="text;html=1;align=center;verticalAlign=middle;whiteSpace=wrap;rounded=0;" vertex="1" parent="1">
          <mxGeometry x="366" y="440" width="96" height="30" as="geometry" />
        </mxCell>
        <mxCell id="VelDpgCsUzJ9nc0T4Y8R-11" style="edgeStyle=orthogonalEdgeStyle;rounded=0;orthogonalLoop=1;jettySize=auto;html=1;entryX=0.5;entryY=0;entryDx=0;entryDy=0;entryPerimeter=0;startArrow=classic;startFill=1;" edge="1" parent="1" source="VelDpgCsUzJ9nc0T4Y8R-5" target="VelDpgCsUzJ9nc0T4Y8R-9">
          <mxGeometry relative="1" as="geometry" />
        </mxCell>
        <mxCell id="VelDpgCsUzJ9nc0T4Y8R-12" style="edgeStyle=orthogonalEdgeStyle;rounded=0;orthogonalLoop=1;jettySize=auto;html=1;entryX=0.5;entryY=1;entryDx=0;entryDy=0;entryPerimeter=0;startArrow=classic;startFill=1;" edge="1" parent="1" source="VelDpgCsUzJ9nc0T4Y8R-6" target="VelDpgCsUzJ9nc0T4Y8R-9">
          <mxGeometry relative="1" as="geometry" />
        </mxCell>
        <mxCell id="VelDpgCsUzJ9nc0T4Y8R-15" value="DB" style="shape=cylinder3;whiteSpace=wrap;html=1;boundedLbl=1;backgroundOutline=1;size=15;" vertex="1" parent="1">
          <mxGeometry x="-50" y="285" width="60" height="80" as="geometry" />
        </mxCell>
        <mxCell id="VelDpgCsUzJ9nc0T4Y8R-16" style="edgeStyle=orthogonalEdgeStyle;rounded=0;orthogonalLoop=1;jettySize=auto;html=1;entryX=1;entryY=0.5;entryDx=0;entryDy=0;entryPerimeter=0;startArrow=classic;startFill=1;" edge="1" parent="1" source="VelDpgCsUzJ9nc0T4Y8R-5" target="VelDpgCsUzJ9nc0T4Y8R-15">
          <mxGeometry relative="1" as="geometry" />
        </mxCell>
        <mxCell id="VelDpgCsUzJ9nc0T4Y8R-17" value="DB" style="shape=cylinder3;whiteSpace=wrap;html=1;boundedLbl=1;backgroundOutline=1;size=15;" vertex="1" parent="1">
          <mxGeometry x="780" y="285" width="60" height="80" as="geometry" />
        </mxCell>
        <mxCell id="VelDpgCsUzJ9nc0T4Y8R-18" style="edgeStyle=orthogonalEdgeStyle;rounded=0;orthogonalLoop=1;jettySize=auto;html=1;entryX=0;entryY=0.5;entryDx=0;entryDy=0;entryPerimeter=0;startArrow=classic;startFill=1;" edge="1" parent="1" source="VelDpgCsUzJ9nc0T4Y8R-6" target="VelDpgCsUzJ9nc0T4Y8R-17">
          <mxGeometry relative="1" as="geometry" />
        </mxCell>
        <mxCell id="VelDpgCsUzJ9nc0T4Y8R-24" style="edgeStyle=orthogonalEdgeStyle;rounded=0;orthogonalLoop=1;jettySize=auto;html=1;entryX=0.5;entryY=0;entryDx=0;entryDy=0;exitX=0.25;exitY=1;exitDx=0;exitDy=0;" edge="1" parent="1" source="VelDpgCsUzJ9nc0T4Y8R-19" target="VelDpgCsUzJ9nc0T4Y8R-5">
          <mxGeometry relative="1" as="geometry">
            <Array as="points">
              <mxPoint x="580" y="190" />
              <mxPoint x="580" y="243" />
              <mxPoint x="185" y="243" />
            </Array>
          </mxGeometry>
        </mxCell>
        <mxCell id="VelDpgCsUzJ9nc0T4Y8R-25" style="edgeStyle=orthogonalEdgeStyle;rounded=0;orthogonalLoop=1;jettySize=auto;html=1;entryX=0.5;entryY=0;entryDx=0;entryDy=0;startArrow=classic;startFill=1;" edge="1" parent="1" source="VelDpgCsUzJ9nc0T4Y8R-19" target="VelDpgCsUzJ9nc0T4Y8R-6">
          <mxGeometry relative="1" as="geometry" />
        </mxCell>
        <mxCell id="VelDpgCsUzJ9nc0T4Y8R-27" style="edgeStyle=orthogonalEdgeStyle;rounded=0;orthogonalLoop=1;jettySize=auto;html=1;entryX=0;entryY=0.5;entryDx=0;entryDy=0;startArrow=classic;startFill=1;" edge="1" parent="1" source="VelDpgCsUzJ9nc0T4Y8R-19" target="VelDpgCsUzJ9nc0T4Y8R-22">
          <mxGeometry relative="1" as="geometry" />
        </mxCell>
        <mxCell id="VelDpgCsUzJ9nc0T4Y8R-19" value="LOAD BALANCING" style="rounded=0;whiteSpace=wrap;html=1;" vertex="1" parent="1">
          <mxGeometry x="520" y="130" width="120" height="60" as="geometry" />
        </mxCell>
        <mxCell id="VelDpgCsUzJ9nc0T4Y8R-22" value="REGISTRY AND DISCOVERY" style="rounded=0;whiteSpace=wrap;html=1;" vertex="1" parent="1">
          <mxGeometry x="720" y="130" width="120" height="60" as="geometry" />
        </mxCell>
      </root>
    </mxGraphModel>
  </diagram>
</mxfile>
